<mxfile host="app.diagrams.net" modified="2022-05-22T06:47:13.330Z" agent="5.0 (Macintosh; Intel Mac OS X 10_15_7) AppleWebKit/537.36 (KHTML, like Gecko) Chrome/101.0.4951.64 Safari/537.36" etag="fm39PGu3us42RPob_H8R" version="18.0.5" type="github">
  <diagram id="3228e29e-7158-1315-38df-8450db1d8a1d" name="Page-1">
    <mxGraphModel dx="887" dy="-868" grid="0" gridSize="10" guides="1" tooltips="1" connect="1" arrows="1" fold="1" page="1" pageScale="1" pageWidth="750" pageHeight="450" background="#EFF1F3" math="0" shadow="0">
      <root>
        <mxCell id="0" />
        <mxCell id="1" parent="0" />
        <mxCell id="1rv8f1VLO6d1HnzpvZRe-15" value="" style="rounded=1;whiteSpace=wrap;html=1;fillColor=#4A919B;strokeColor=none;" parent="1" vertex="1">
          <mxGeometry x="311.00000000000006" y="1991" width="85" height="99" as="geometry" />
        </mxCell>
        <mxCell id="n8PQSL9Bu4Ly_2OT7yPN-3" value="" style="rounded=1;whiteSpace=wrap;html=1;fillColor=#4A919B;strokeColor=none;" parent="1" vertex="1">
          <mxGeometry x="30" y="1980" width="188.5" height="131" as="geometry" />
        </mxCell>
        <mxCell id="n8PQSL9Bu4Ly_2OT7yPN-7" value="&lt;font color=&quot;#ffffff&quot; style=&quot;font-size: 22px;&quot;&gt;orm&lt;/font&gt;" style="rounded=1;whiteSpace=wrap;html=1;fillColor=#9AC7BF;strokeColor=none;" parent="1" vertex="1">
          <mxGeometry x="167.5" y="1995" width="44" height="102" as="geometry" />
        </mxCell>
        <mxCell id="n8PQSL9Bu4Ly_2OT7yPN-8" value="&lt;font color=&quot;#ffffff&quot;&gt;go/java&lt;/font&gt;" style="text;html=1;strokeColor=none;fillColor=none;align=center;verticalAlign=middle;whiteSpace=wrap;rounded=0;fontSize=22;" parent="1" vertex="1">
          <mxGeometry x="61.5" y="2030.5" width="60" height="30" as="geometry" />
        </mxCell>
        <mxCell id="n8PQSL9Bu4Ly_2OT7yPN-12" value="" style="shape=curlyBracket;whiteSpace=wrap;html=1;rounded=1;fontSize=22;fontColor=#FFFFFF;strokeColor=#4A919B;fillColor=none;strokeWidth=3;" parent="1" vertex="1">
          <mxGeometry x="243" y="1875.85" width="43" height="348.15" as="geometry" />
        </mxCell>
        <mxCell id="1rv8f1VLO6d1HnzpvZRe-9" value="&lt;span style=&quot;font-size: 15px;&quot;&gt;id&lt;/span&gt;" style="text;strokeColor=none;fillColor=none;html=1;fontSize=15;fontStyle=0;verticalAlign=middle;align=center;fontColor=#FFFFFF;" parent="1" vertex="1">
          <mxGeometry x="348.20000000000005" y="2002" width="44" height="20" as="geometry" />
        </mxCell>
        <mxCell id="1rv8f1VLO6d1HnzpvZRe-10" value="&lt;font color=&quot;#5c5c5c&quot;&gt;&lt;span style=&quot;font-size: 15px;&quot;&gt;name1&lt;/span&gt;&lt;/font&gt;" style="text;strokeColor=none;fillColor=none;html=1;fontSize=24;fontStyle=1;verticalAlign=middle;align=center;fontColor=#FFFFFF;" parent="1" vertex="1">
          <mxGeometry x="304" y="1962" width="102" height="25.5" as="geometry" />
        </mxCell>
        <mxCell id="1rv8f1VLO6d1HnzpvZRe-11" style="edgeStyle=orthogonalEdgeStyle;rounded=0;orthogonalLoop=1;jettySize=auto;html=1;exitX=0.5;exitY=1;exitDx=0;exitDy=0;fontSize=15;fontColor=#4A919B;" parent="1" edge="1">
          <mxGeometry relative="1" as="geometry">
            <mxPoint x="329.30000000000024" y="2012.85" as="sourcePoint" />
            <mxPoint x="329.30000000000024" y="2012.85" as="targetPoint" />
          </mxGeometry>
        </mxCell>
        <mxCell id="1rv8f1VLO6d1HnzpvZRe-12" value="&lt;span style=&quot;font-size: 15px;&quot;&gt;&lt;b&gt;name&lt;/b&gt;&lt;/span&gt;" style="text;strokeColor=none;fillColor=none;html=1;fontSize=15;fontStyle=0;verticalAlign=middle;align=center;fontColor=#FFFFFF;" parent="1" vertex="1">
          <mxGeometry x="319.70000000000005" y="2002" width="32.9" height="17" as="geometry" />
        </mxCell>
        <mxCell id="1rv8f1VLO6d1HnzpvZRe-16" value="&lt;span style=&quot;&quot;&gt;小白&lt;/span&gt;" style="rounded=1;whiteSpace=wrap;html=1;fillColor=#FFFFFF;strokeColor=none;" parent="1" vertex="1">
          <mxGeometry x="318.80000000000007" y="2022" width="34.2" height="19" as="geometry" />
        </mxCell>
        <mxCell id="1rv8f1VLO6d1HnzpvZRe-21" value="1" style="rounded=1;whiteSpace=wrap;html=1;fillColor=#FFFFFF;strokeColor=none;fontColor=#F19C99;" parent="1" vertex="1">
          <mxGeometry x="355.00000000000006" y="2022" width="34.2" height="19" as="geometry" />
        </mxCell>
        <mxCell id="1rv8f1VLO6d1HnzpvZRe-22" value="&lt;span style=&quot;&quot;&gt;小白&lt;/span&gt;" style="rounded=1;whiteSpace=wrap;html=1;fillColor=#FFFFFF;strokeColor=none;" parent="1" vertex="1">
          <mxGeometry x="318.80000000000007" y="2043" width="34.2" height="19" as="geometry" />
        </mxCell>
        <mxCell id="1rv8f1VLO6d1HnzpvZRe-23" value="4" style="rounded=1;whiteSpace=wrap;html=1;fillColor=#FFFFFF;strokeColor=none;fontColor=#F19C99;" parent="1" vertex="1">
          <mxGeometry x="355.00000000000006" y="2043" width="34.2" height="19" as="geometry" />
        </mxCell>
        <mxCell id="1rv8f1VLO6d1HnzpvZRe-24" value="&lt;span style=&quot;&quot;&gt;小白&lt;/span&gt;" style="rounded=1;whiteSpace=wrap;html=1;fillColor=#FFFFFF;strokeColor=none;" parent="1" vertex="1">
          <mxGeometry x="318.80000000000007" y="2064" width="34.2" height="19" as="geometry" />
        </mxCell>
        <mxCell id="1rv8f1VLO6d1HnzpvZRe-25" value="6" style="rounded=1;whiteSpace=wrap;html=1;fillColor=#FFFFFF;strokeColor=none;fontColor=#F19C99;" parent="1" vertex="1">
          <mxGeometry x="355.00000000000006" y="2064" width="34.2" height="19" as="geometry" />
        </mxCell>
        <mxCell id="1rv8f1VLO6d1HnzpvZRe-38" value="" style="rounded=1;whiteSpace=wrap;html=1;fillColor=#4A919B;strokeColor=none;" parent="1" vertex="1">
          <mxGeometry x="314.8" y="1858" width="85" height="99" as="geometry" />
        </mxCell>
        <mxCell id="1rv8f1VLO6d1HnzpvZRe-39" value="&lt;span style=&quot;font-size: 15px;&quot;&gt;id&lt;/span&gt;" style="text;strokeColor=none;fillColor=none;html=1;fontSize=15;fontStyle=0;verticalAlign=middle;align=center;fontColor=#FFFFFF;" parent="1" vertex="1">
          <mxGeometry x="352" y="1869" width="44" height="20" as="geometry" />
        </mxCell>
        <mxCell id="1rv8f1VLO6d1HnzpvZRe-40" value="&lt;font color=&quot;#5c5c5c&quot;&gt;&lt;span style=&quot;font-size: 15px;&quot;&gt;name0&lt;/span&gt;&lt;/font&gt;" style="text;strokeColor=none;fillColor=none;html=1;fontSize=24;fontStyle=1;verticalAlign=middle;align=center;fontColor=#FFFFFF;" parent="1" vertex="1">
          <mxGeometry x="305.0000000000001" y="1818" width="100" height="40" as="geometry" />
        </mxCell>
        <mxCell id="1rv8f1VLO6d1HnzpvZRe-41" style="edgeStyle=orthogonalEdgeStyle;rounded=0;orthogonalLoop=1;jettySize=auto;html=1;exitX=0.5;exitY=1;exitDx=0;exitDy=0;fontSize=15;fontColor=#4A919B;" parent="1" edge="1">
          <mxGeometry relative="1" as="geometry">
            <mxPoint x="333.10000000000014" y="1879.85" as="sourcePoint" />
            <mxPoint x="333.10000000000014" y="1879.85" as="targetPoint" />
          </mxGeometry>
        </mxCell>
        <mxCell id="1rv8f1VLO6d1HnzpvZRe-42" value="&lt;span style=&quot;font-size: 15px;&quot;&gt;&lt;b&gt;name&lt;/b&gt;&lt;/span&gt;" style="text;strokeColor=none;fillColor=none;html=1;fontSize=15;fontStyle=0;verticalAlign=middle;align=center;fontColor=#FFFFFF;" parent="1" vertex="1">
          <mxGeometry x="323.5" y="1869" width="32.9" height="17" as="geometry" />
        </mxCell>
        <mxCell id="1rv8f1VLO6d1HnzpvZRe-43" value="" style="rounded=1;whiteSpace=wrap;html=1;fillColor=#FFFFFF;strokeColor=none;" parent="1" vertex="1">
          <mxGeometry x="322.6" y="1889" width="34.2" height="19" as="geometry" />
        </mxCell>
        <mxCell id="1rv8f1VLO6d1HnzpvZRe-44" value="5" style="rounded=1;whiteSpace=wrap;html=1;fillColor=#FFFFFF;strokeColor=none;" parent="1" vertex="1">
          <mxGeometry x="358.8" y="1889" width="34.2" height="19" as="geometry" />
        </mxCell>
        <mxCell id="1rv8f1VLO6d1HnzpvZRe-45" value="小A" style="rounded=1;whiteSpace=wrap;html=1;fillColor=#FFFFFF;strokeColor=none;" parent="1" vertex="1">
          <mxGeometry x="322.6" y="1910" width="34.2" height="19" as="geometry" />
        </mxCell>
        <mxCell id="1rv8f1VLO6d1HnzpvZRe-46" value="9" style="rounded=1;whiteSpace=wrap;html=1;fillColor=#FFFFFF;strokeColor=none;" parent="1" vertex="1">
          <mxGeometry x="358.8" y="1910" width="34.2" height="19" as="geometry" />
        </mxCell>
        <mxCell id="1rv8f1VLO6d1HnzpvZRe-47" value="小B" style="rounded=1;whiteSpace=wrap;html=1;fillColor=#FFFFFF;strokeColor=none;" parent="1" vertex="1">
          <mxGeometry x="322.6" y="1931" width="34.2" height="19" as="geometry" />
        </mxCell>
        <mxCell id="1rv8f1VLO6d1HnzpvZRe-48" value="8" style="rounded=1;whiteSpace=wrap;html=1;fillColor=#FFFFFF;strokeColor=none;" parent="1" vertex="1">
          <mxGeometry x="358.8" y="1931" width="34.2" height="19" as="geometry" />
        </mxCell>
        <mxCell id="1rv8f1VLO6d1HnzpvZRe-50" value="1.先查 name = &quot;小白&quot; 对应的ids" style="text;html=1;strokeColor=none;fillColor=none;align=center;verticalAlign=middle;whiteSpace=wrap;rounded=0;" parent="1" vertex="1">
          <mxGeometry x="73" y="1941" width="187" height="36" as="geometry" />
        </mxCell>
        <mxCell id="1rv8f1VLO6d1HnzpvZRe-52" value="" style="shape=flexArrow;endArrow=classic;html=1;rounded=0;strokeColor=none;fillColor=#FDD276;" parent="1" edge="1">
          <mxGeometry width="50" height="50" relative="1" as="geometry">
            <mxPoint x="411" y="2044.94" as="sourcePoint" />
            <mxPoint x="499" y="2044.94" as="targetPoint" />
          </mxGeometry>
        </mxCell>
        <mxCell id="1rv8f1VLO6d1HnzpvZRe-53" value="2.根据ids=[1,4,6]&lt;br&gt;得到具体要读哪个分表" style="text;html=1;strokeColor=none;fillColor=none;align=center;verticalAlign=middle;whiteSpace=wrap;rounded=0;" parent="1" vertex="1">
          <mxGeometry x="373" y="1997" width="187" height="36" as="geometry" />
        </mxCell>
        <mxCell id="1rv8f1VLO6d1HnzpvZRe-54" value="" style="shape=curlyBracket;whiteSpace=wrap;html=1;rounded=1;fontSize=22;fontColor=#FFFFFF;strokeColor=#4A919B;fillColor=none;strokeWidth=3;" parent="1" vertex="1">
          <mxGeometry x="508" y="1861" width="43" height="361" as="geometry" />
        </mxCell>
        <mxCell id="1rv8f1VLO6d1HnzpvZRe-55" value="CC" style="text;html=1;strokeColor=none;fillColor=none;align=center;verticalAlign=middle;whiteSpace=wrap;rounded=0;fontColor=#5C5C5C;" parent="1" vertex="1">
          <mxGeometry x="323" y="1889" width="30" height="18" as="geometry" />
        </mxCell>
        <mxCell id="2OdIoPy5QrI03bMlLEsT-1" value="" style="rounded=1;whiteSpace=wrap;html=1;fillColor=#4A919B;strokeColor=none;" parent="1" vertex="1">
          <mxGeometry x="564" y="1991" width="156" height="99" as="geometry" />
        </mxCell>
        <mxCell id="2OdIoPy5QrI03bMlLEsT-2" value="&lt;span style=&quot;font-size: 15px;&quot;&gt;name&lt;/span&gt;" style="text;strokeColor=none;fillColor=none;html=1;fontSize=15;fontStyle=0;verticalAlign=middle;align=center;fontColor=#FFFFFF;" parent="1" vertex="1">
          <mxGeometry x="603.1" y="2000.5" width="44" height="20" as="geometry" />
        </mxCell>
        <mxCell id="2OdIoPy5QrI03bMlLEsT-3" value="&lt;font color=&quot;#5c5c5c&quot;&gt;&lt;span style=&quot;font-size: 15px;&quot;&gt;user1&lt;/span&gt;&lt;/font&gt;" style="text;strokeColor=none;fillColor=none;html=1;fontSize=24;fontStyle=1;verticalAlign=middle;align=center;fontColor=#FFFFFF;" parent="1" vertex="1">
          <mxGeometry x="588" y="1962" width="102" height="25.5" as="geometry" />
        </mxCell>
        <mxCell id="2OdIoPy5QrI03bMlLEsT-4" style="edgeStyle=orthogonalEdgeStyle;rounded=0;orthogonalLoop=1;jettySize=auto;html=1;exitX=0.5;exitY=1;exitDx=0;exitDy=0;fontSize=15;fontColor=#4A919B;" parent="1" edge="1">
          <mxGeometry relative="1" as="geometry">
            <mxPoint x="582.3000000000002" y="2012.85" as="sourcePoint" />
            <mxPoint x="582.3000000000002" y="2012.85" as="targetPoint" />
          </mxGeometry>
        </mxCell>
        <mxCell id="2OdIoPy5QrI03bMlLEsT-5" value="&lt;span style=&quot;font-size: 15px;&quot;&gt;&lt;b&gt;id&lt;/b&gt;&lt;/span&gt;" style="text;strokeColor=none;fillColor=none;html=1;fontSize=15;fontStyle=0;verticalAlign=middle;align=center;fontColor=#FFFFFF;" parent="1" vertex="1">
          <mxGeometry x="572.7" y="2002" width="32.9" height="17" as="geometry" />
        </mxCell>
        <mxCell id="2OdIoPy5QrI03bMlLEsT-6" value="4" style="rounded=1;whiteSpace=wrap;html=1;fillColor=#FFFFFF;strokeColor=none;" parent="1" vertex="1">
          <mxGeometry x="571.8000000000001" y="2022" width="34.2" height="19" as="geometry" />
        </mxCell>
        <mxCell id="2OdIoPy5QrI03bMlLEsT-7" value="&lt;span style=&quot;&quot;&gt;&lt;font color=&quot;#f19c99&quot;&gt;&lt;b&gt;小白&lt;/b&gt;&lt;/font&gt;&lt;/span&gt;" style="rounded=1;whiteSpace=wrap;html=1;fillColor=#FFFFFF;strokeColor=none;" parent="1" vertex="1">
          <mxGeometry x="608" y="2022" width="34.2" height="19" as="geometry" />
        </mxCell>
        <mxCell id="2OdIoPy5QrI03bMlLEsT-8" value="5" style="rounded=1;whiteSpace=wrap;html=1;fillColor=#FFFFFF;strokeColor=none;" parent="1" vertex="1">
          <mxGeometry x="571.8000000000001" y="2043" width="34.2" height="19" as="geometry" />
        </mxCell>
        <mxCell id="2OdIoPy5QrI03bMlLEsT-9" value="CC" style="rounded=1;whiteSpace=wrap;html=1;fillColor=#FFFFFF;strokeColor=none;" parent="1" vertex="1">
          <mxGeometry x="608" y="2043" width="34.2" height="19" as="geometry" />
        </mxCell>
        <mxCell id="2OdIoPy5QrI03bMlLEsT-10" value="6" style="rounded=1;whiteSpace=wrap;html=1;fillColor=#FFFFFF;strokeColor=none;" parent="1" vertex="1">
          <mxGeometry x="571.8000000000001" y="2064" width="34.2" height="19" as="geometry" />
        </mxCell>
        <mxCell id="2OdIoPy5QrI03bMlLEsT-11" value="&lt;b style=&quot;color: rgb(241, 156, 153);&quot;&gt;小白&lt;/b&gt;" style="rounded=1;whiteSpace=wrap;html=1;fillColor=#FFFFFF;strokeColor=none;" parent="1" vertex="1">
          <mxGeometry x="608" y="2064" width="34.2" height="19" as="geometry" />
        </mxCell>
        <mxCell id="2OdIoPy5QrI03bMlLEsT-12" value="" style="rounded=1;whiteSpace=wrap;html=1;fillColor=#FFFFFF;strokeColor=none;" parent="1" vertex="1">
          <mxGeometry x="643.6" y="2022" width="34.2" height="19" as="geometry" />
        </mxCell>
        <mxCell id="2OdIoPy5QrI03bMlLEsT-13" value="" style="rounded=1;whiteSpace=wrap;html=1;fillColor=#FFFFFF;strokeColor=none;" parent="1" vertex="1">
          <mxGeometry x="679.8" y="2022" width="34.2" height="19" as="geometry" />
        </mxCell>
        <mxCell id="2OdIoPy5QrI03bMlLEsT-14" value="" style="rounded=1;whiteSpace=wrap;html=1;fillColor=#FFFFFF;strokeColor=none;" parent="1" vertex="1">
          <mxGeometry x="643.6" y="2043" width="34.2" height="19" as="geometry" />
        </mxCell>
        <mxCell id="2OdIoPy5QrI03bMlLEsT-15" value="" style="rounded=1;whiteSpace=wrap;html=1;fillColor=#FFFFFF;strokeColor=none;" parent="1" vertex="1">
          <mxGeometry x="679.8" y="2043" width="34.2" height="19" as="geometry" />
        </mxCell>
        <mxCell id="2OdIoPy5QrI03bMlLEsT-16" value="" style="rounded=1;whiteSpace=wrap;html=1;fillColor=#FFFFFF;strokeColor=none;" parent="1" vertex="1">
          <mxGeometry x="643.6" y="2064" width="34.2" height="19" as="geometry" />
        </mxCell>
        <mxCell id="2OdIoPy5QrI03bMlLEsT-17" value="" style="rounded=1;whiteSpace=wrap;html=1;fillColor=#FFFFFF;strokeColor=none;" parent="1" vertex="1">
          <mxGeometry x="679.8" y="2064" width="34.2" height="19" as="geometry" />
        </mxCell>
        <mxCell id="2OdIoPy5QrI03bMlLEsT-18" value="" style="rounded=1;whiteSpace=wrap;html=1;fillColor=#4A919B;strokeColor=none;" parent="1" vertex="1">
          <mxGeometry x="564" y="1852" width="156" height="99" as="geometry" />
        </mxCell>
        <mxCell id="2OdIoPy5QrI03bMlLEsT-19" value="&lt;span style=&quot;font-size: 15px;&quot;&gt;name&lt;/span&gt;" style="text;strokeColor=none;fillColor=none;html=1;fontSize=15;fontStyle=0;verticalAlign=middle;align=center;fontColor=#FFFFFF;" parent="1" vertex="1">
          <mxGeometry x="603.1" y="1861.5" width="44" height="20" as="geometry" />
        </mxCell>
        <mxCell id="2OdIoPy5QrI03bMlLEsT-20" value="&lt;font color=&quot;#5c5c5c&quot;&gt;&lt;span style=&quot;font-size: 15px;&quot;&gt;user0&lt;/span&gt;&lt;/font&gt;" style="text;strokeColor=none;fillColor=none;html=1;fontSize=24;fontStyle=1;verticalAlign=middle;align=center;fontColor=#FFFFFF;" parent="1" vertex="1">
          <mxGeometry x="588" y="1823" width="102" height="25.5" as="geometry" />
        </mxCell>
        <mxCell id="2OdIoPy5QrI03bMlLEsT-21" style="edgeStyle=orthogonalEdgeStyle;rounded=0;orthogonalLoop=1;jettySize=auto;html=1;exitX=0.5;exitY=1;exitDx=0;exitDy=0;fontSize=15;fontColor=#4A919B;" parent="1" edge="1">
          <mxGeometry relative="1" as="geometry">
            <mxPoint x="582.3000000000002" y="1873.85" as="sourcePoint" />
            <mxPoint x="582.3000000000002" y="1873.85" as="targetPoint" />
          </mxGeometry>
        </mxCell>
        <mxCell id="2OdIoPy5QrI03bMlLEsT-22" value="&lt;span style=&quot;font-size: 15px;&quot;&gt;&lt;b&gt;id&lt;/b&gt;&lt;/span&gt;" style="text;strokeColor=none;fillColor=none;html=1;fontSize=15;fontStyle=0;verticalAlign=middle;align=center;fontColor=#FFFFFF;" parent="1" vertex="1">
          <mxGeometry x="572.7" y="1863" width="32.9" height="17" as="geometry" />
        </mxCell>
        <mxCell id="2OdIoPy5QrI03bMlLEsT-23" value="1" style="rounded=1;whiteSpace=wrap;html=1;fillColor=#FFFFFF;strokeColor=none;" parent="1" vertex="1">
          <mxGeometry x="571.8000000000001" y="1883" width="34.2" height="19" as="geometry" />
        </mxCell>
        <mxCell id="2OdIoPy5QrI03bMlLEsT-24" value="&lt;font color=&quot;#f19c99&quot;&gt;&lt;b&gt;小白&lt;/b&gt;&lt;/font&gt;" style="rounded=1;whiteSpace=wrap;html=1;fillColor=#FFFFFF;strokeColor=none;" parent="1" vertex="1">
          <mxGeometry x="608" y="1883" width="34.2" height="19" as="geometry" />
        </mxCell>
        <mxCell id="2OdIoPy5QrI03bMlLEsT-25" value="2" style="rounded=1;whiteSpace=wrap;html=1;fillColor=#FFFFFF;strokeColor=none;" parent="1" vertex="1">
          <mxGeometry x="571.8000000000001" y="1904" width="34.2" height="19" as="geometry" />
        </mxCell>
        <mxCell id="2OdIoPy5QrI03bMlLEsT-26" value="云韵" style="rounded=1;whiteSpace=wrap;html=1;fillColor=#FFFFFF;strokeColor=none;" parent="1" vertex="1">
          <mxGeometry x="608" y="1904" width="34.2" height="19" as="geometry" />
        </mxCell>
        <mxCell id="2OdIoPy5QrI03bMlLEsT-27" value="3" style="rounded=1;whiteSpace=wrap;html=1;fillColor=#FFFFFF;strokeColor=none;" parent="1" vertex="1">
          <mxGeometry x="571.8000000000001" y="1925" width="34.2" height="19" as="geometry" />
        </mxCell>
        <mxCell id="2OdIoPy5QrI03bMlLEsT-28" value="小黑" style="rounded=1;whiteSpace=wrap;html=1;fillColor=#FFFFFF;strokeColor=none;" parent="1" vertex="1">
          <mxGeometry x="608" y="1925" width="34.2" height="19" as="geometry" />
        </mxCell>
        <mxCell id="2OdIoPy5QrI03bMlLEsT-29" value="" style="rounded=1;whiteSpace=wrap;html=1;fillColor=#FFFFFF;strokeColor=none;" parent="1" vertex="1">
          <mxGeometry x="643.6" y="1883" width="34.2" height="19" as="geometry" />
        </mxCell>
        <mxCell id="2OdIoPy5QrI03bMlLEsT-30" value="" style="rounded=1;whiteSpace=wrap;html=1;fillColor=#FFFFFF;strokeColor=none;" parent="1" vertex="1">
          <mxGeometry x="679.8" y="1883" width="34.2" height="19" as="geometry" />
        </mxCell>
        <mxCell id="2OdIoPy5QrI03bMlLEsT-31" value="" style="rounded=1;whiteSpace=wrap;html=1;fillColor=#FFFFFF;strokeColor=none;" parent="1" vertex="1">
          <mxGeometry x="643.6" y="1904" width="34.2" height="19" as="geometry" />
        </mxCell>
        <mxCell id="2OdIoPy5QrI03bMlLEsT-32" value="" style="rounded=1;whiteSpace=wrap;html=1;fillColor=#FFFFFF;strokeColor=none;" parent="1" vertex="1">
          <mxGeometry x="679.8" y="1904" width="34.2" height="19" as="geometry" />
        </mxCell>
        <mxCell id="2OdIoPy5QrI03bMlLEsT-33" value="" style="rounded=1;whiteSpace=wrap;html=1;fillColor=#FFFFFF;strokeColor=none;" parent="1" vertex="1">
          <mxGeometry x="643.6" y="1925" width="34.2" height="19" as="geometry" />
        </mxCell>
        <mxCell id="2OdIoPy5QrI03bMlLEsT-34" value="" style="rounded=1;whiteSpace=wrap;html=1;fillColor=#FFFFFF;strokeColor=none;" parent="1" vertex="1">
          <mxGeometry x="679.8" y="1925" width="34.2" height="19" as="geometry" />
        </mxCell>
        <mxCell id="2OdIoPy5QrI03bMlLEsT-35" value="" style="rounded=1;whiteSpace=wrap;html=1;fillColor=#4A919B;strokeColor=none;" parent="1" vertex="1">
          <mxGeometry x="564" y="2133" width="156" height="99" as="geometry" />
        </mxCell>
        <mxCell id="2OdIoPy5QrI03bMlLEsT-36" value="&lt;span style=&quot;font-size: 15px;&quot;&gt;name&lt;/span&gt;" style="text;strokeColor=none;fillColor=none;html=1;fontSize=15;fontStyle=0;verticalAlign=middle;align=center;fontColor=#FFFFFF;" parent="1" vertex="1">
          <mxGeometry x="603.1" y="2142.5" width="44" height="20" as="geometry" />
        </mxCell>
        <mxCell id="2OdIoPy5QrI03bMlLEsT-37" value="&lt;font color=&quot;#5c5c5c&quot;&gt;&lt;span style=&quot;font-size: 15px;&quot;&gt;user2&lt;/span&gt;&lt;/font&gt;" style="text;strokeColor=none;fillColor=none;html=1;fontSize=24;fontStyle=1;verticalAlign=middle;align=center;fontColor=#FFFFFF;" parent="1" vertex="1">
          <mxGeometry x="588" y="2104" width="102" height="25.5" as="geometry" />
        </mxCell>
        <mxCell id="2OdIoPy5QrI03bMlLEsT-38" style="edgeStyle=orthogonalEdgeStyle;rounded=0;orthogonalLoop=1;jettySize=auto;html=1;exitX=0.5;exitY=1;exitDx=0;exitDy=0;fontSize=15;fontColor=#4A919B;" parent="1" edge="1">
          <mxGeometry relative="1" as="geometry">
            <mxPoint x="582.3000000000002" y="2154.85" as="sourcePoint" />
            <mxPoint x="582.3000000000002" y="2154.85" as="targetPoint" />
          </mxGeometry>
        </mxCell>
        <mxCell id="2OdIoPy5QrI03bMlLEsT-39" value="&lt;span style=&quot;font-size: 15px;&quot;&gt;&lt;b&gt;id&lt;/b&gt;&lt;/span&gt;" style="text;strokeColor=none;fillColor=none;html=1;fontSize=15;fontStyle=0;verticalAlign=middle;align=center;fontColor=#FFFFFF;" parent="1" vertex="1">
          <mxGeometry x="572.7" y="2144" width="32.9" height="17" as="geometry" />
        </mxCell>
        <mxCell id="2OdIoPy5QrI03bMlLEsT-40" value="7" style="rounded=1;whiteSpace=wrap;html=1;fillColor=#FFFFFF;strokeColor=none;" parent="1" vertex="1">
          <mxGeometry x="571.8000000000001" y="2164" width="34.2" height="19" as="geometry" />
        </mxCell>
        <mxCell id="2OdIoPy5QrI03bMlLEsT-41" value="小红" style="rounded=1;whiteSpace=wrap;html=1;fillColor=#FFFFFF;strokeColor=none;" parent="1" vertex="1">
          <mxGeometry x="608" y="2164" width="34.2" height="19" as="geometry" />
        </mxCell>
        <mxCell id="2OdIoPy5QrI03bMlLEsT-42" value="8" style="rounded=1;whiteSpace=wrap;html=1;fillColor=#FFFFFF;strokeColor=none;" parent="1" vertex="1">
          <mxGeometry x="571.8000000000001" y="2185" width="34.2" height="19" as="geometry" />
        </mxCell>
        <mxCell id="2OdIoPy5QrI03bMlLEsT-43" value="小B" style="rounded=1;whiteSpace=wrap;html=1;fillColor=#FFFFFF;strokeColor=none;" parent="1" vertex="1">
          <mxGeometry x="608" y="2185" width="34.2" height="19" as="geometry" />
        </mxCell>
        <mxCell id="2OdIoPy5QrI03bMlLEsT-44" value="9" style="rounded=1;whiteSpace=wrap;html=1;fillColor=#FFFFFF;strokeColor=none;" parent="1" vertex="1">
          <mxGeometry x="571.8000000000001" y="2206" width="34.2" height="19" as="geometry" />
        </mxCell>
        <mxCell id="2OdIoPy5QrI03bMlLEsT-45" value="小A" style="rounded=1;whiteSpace=wrap;html=1;fillColor=#FFFFFF;strokeColor=none;" parent="1" vertex="1">
          <mxGeometry x="608" y="2206" width="34.2" height="19" as="geometry" />
        </mxCell>
        <mxCell id="2OdIoPy5QrI03bMlLEsT-46" value="" style="rounded=1;whiteSpace=wrap;html=1;fillColor=#FFFFFF;strokeColor=none;" parent="1" vertex="1">
          <mxGeometry x="643.6" y="2164" width="34.2" height="19" as="geometry" />
        </mxCell>
        <mxCell id="2OdIoPy5QrI03bMlLEsT-47" value="" style="rounded=1;whiteSpace=wrap;html=1;fillColor=#FFFFFF;strokeColor=none;" parent="1" vertex="1">
          <mxGeometry x="679.8" y="2164" width="34.2" height="19" as="geometry" />
        </mxCell>
        <mxCell id="2OdIoPy5QrI03bMlLEsT-48" value="" style="rounded=1;whiteSpace=wrap;html=1;fillColor=#FFFFFF;strokeColor=none;" parent="1" vertex="1">
          <mxGeometry x="643.6" y="2185" width="34.2" height="19" as="geometry" />
        </mxCell>
        <mxCell id="2OdIoPy5QrI03bMlLEsT-49" value="" style="rounded=1;whiteSpace=wrap;html=1;fillColor=#FFFFFF;strokeColor=none;" parent="1" vertex="1">
          <mxGeometry x="679.8" y="2185" width="34.2" height="19" as="geometry" />
        </mxCell>
        <mxCell id="2OdIoPy5QrI03bMlLEsT-50" value="" style="rounded=1;whiteSpace=wrap;html=1;fillColor=#FFFFFF;strokeColor=none;" parent="1" vertex="1">
          <mxGeometry x="643.6" y="2206" width="34.2" height="19" as="geometry" />
        </mxCell>
        <mxCell id="2OdIoPy5QrI03bMlLEsT-51" value="" style="rounded=1;whiteSpace=wrap;html=1;fillColor=#FFFFFF;strokeColor=none;" parent="1" vertex="1">
          <mxGeometry x="679.8" y="2206" width="34.2" height="19" as="geometry" />
        </mxCell>
        <mxCell id="2OdIoPy5QrI03bMlLEsT-52" value="&lt;span style=&quot;font-size: 15px;&quot;&gt;age&lt;/span&gt;" style="text;strokeColor=none;fillColor=none;html=1;fontSize=15;fontStyle=0;verticalAlign=middle;align=center;fontColor=#FFFFFF;" parent="1" vertex="1">
          <mxGeometry x="638.7" y="1861.5" width="44" height="20" as="geometry" />
        </mxCell>
        <mxCell id="2OdIoPy5QrI03bMlLEsT-53" value="xx" style="text;strokeColor=none;fillColor=none;html=1;fontSize=15;fontStyle=0;verticalAlign=middle;align=center;fontColor=#FFFFFF;" parent="1" vertex="1">
          <mxGeometry x="672" y="1863" width="44" height="20" as="geometry" />
        </mxCell>
        <mxCell id="2OdIoPy5QrI03bMlLEsT-54" value="&lt;span style=&quot;font-size: 15px;&quot;&gt;age&lt;/span&gt;" style="text;strokeColor=none;fillColor=none;html=1;fontSize=15;fontStyle=0;verticalAlign=middle;align=center;fontColor=#FFFFFF;" parent="1" vertex="1">
          <mxGeometry x="638.7" y="2000.5" width="44" height="20" as="geometry" />
        </mxCell>
        <mxCell id="2OdIoPy5QrI03bMlLEsT-55" value="xx" style="text;strokeColor=none;fillColor=none;html=1;fontSize=15;fontStyle=0;verticalAlign=middle;align=center;fontColor=#FFFFFF;" parent="1" vertex="1">
          <mxGeometry x="672" y="2002" width="44" height="20" as="geometry" />
        </mxCell>
        <mxCell id="2OdIoPy5QrI03bMlLEsT-56" value="&lt;span style=&quot;font-size: 15px;&quot;&gt;age&lt;/span&gt;" style="text;strokeColor=none;fillColor=none;html=1;fontSize=15;fontStyle=0;verticalAlign=middle;align=center;fontColor=#FFFFFF;" parent="1" vertex="1">
          <mxGeometry x="638.7" y="2142.5" width="44" height="20" as="geometry" />
        </mxCell>
        <mxCell id="2OdIoPy5QrI03bMlLEsT-57" value="xx" style="text;strokeColor=none;fillColor=none;html=1;fontSize=15;fontStyle=0;verticalAlign=middle;align=center;fontColor=#FFFFFF;" parent="1" vertex="1">
          <mxGeometry x="672" y="2144" width="44" height="20" as="geometry" />
        </mxCell>
        <mxCell id="2OdIoPy5QrI03bMlLEsT-58" value="" style="rounded=1;whiteSpace=wrap;html=1;fillColor=#4A919B;strokeColor=none;" parent="1" vertex="1">
          <mxGeometry x="309.50000000000006" y="2133" width="85" height="99" as="geometry" />
        </mxCell>
        <mxCell id="2OdIoPy5QrI03bMlLEsT-59" value="&lt;span style=&quot;font-size: 15px;&quot;&gt;id&lt;/span&gt;" style="text;strokeColor=none;fillColor=none;html=1;fontSize=15;fontStyle=0;verticalAlign=middle;align=center;fontColor=#FFFFFF;" parent="1" vertex="1">
          <mxGeometry x="346.70000000000005" y="2144" width="44" height="20" as="geometry" />
        </mxCell>
        <mxCell id="2OdIoPy5QrI03bMlLEsT-60" value="&lt;font color=&quot;#5c5c5c&quot;&gt;&lt;span style=&quot;font-size: 15px;&quot;&gt;name2&lt;/span&gt;&lt;/font&gt;" style="text;strokeColor=none;fillColor=none;html=1;fontSize=24;fontStyle=1;verticalAlign=middle;align=center;fontColor=#FFFFFF;" parent="1" vertex="1">
          <mxGeometry x="302.5" y="2104" width="102" height="25.5" as="geometry" />
        </mxCell>
        <mxCell id="2OdIoPy5QrI03bMlLEsT-61" style="edgeStyle=orthogonalEdgeStyle;rounded=0;orthogonalLoop=1;jettySize=auto;html=1;exitX=0.5;exitY=1;exitDx=0;exitDy=0;fontSize=15;fontColor=#4A919B;" parent="1" edge="1">
          <mxGeometry relative="1" as="geometry">
            <mxPoint x="327.80000000000007" y="2154.85" as="sourcePoint" />
            <mxPoint x="327.80000000000007" y="2154.85" as="targetPoint" />
          </mxGeometry>
        </mxCell>
        <mxCell id="2OdIoPy5QrI03bMlLEsT-62" value="&lt;span style=&quot;font-size: 15px;&quot;&gt;&lt;b&gt;name&lt;/b&gt;&lt;/span&gt;" style="text;strokeColor=none;fillColor=none;html=1;fontSize=15;fontStyle=0;verticalAlign=middle;align=center;fontColor=#FFFFFF;" parent="1" vertex="1">
          <mxGeometry x="318.20000000000005" y="2144" width="32.9" height="17" as="geometry" />
        </mxCell>
        <mxCell id="2OdIoPy5QrI03bMlLEsT-63" value="小黑" style="rounded=1;whiteSpace=wrap;html=1;fillColor=#FFFFFF;strokeColor=none;" parent="1" vertex="1">
          <mxGeometry x="317.30000000000007" y="2164" width="34.2" height="19" as="geometry" />
        </mxCell>
        <mxCell id="2OdIoPy5QrI03bMlLEsT-64" value="3" style="rounded=1;whiteSpace=wrap;html=1;fillColor=#FFFFFF;strokeColor=none;" parent="1" vertex="1">
          <mxGeometry x="353.50000000000006" y="2164" width="34.2" height="19" as="geometry" />
        </mxCell>
        <mxCell id="2OdIoPy5QrI03bMlLEsT-65" value="小红" style="rounded=1;whiteSpace=wrap;html=1;fillColor=#FFFFFF;strokeColor=none;" parent="1" vertex="1">
          <mxGeometry x="317.30000000000007" y="2185" width="34.2" height="19" as="geometry" />
        </mxCell>
        <mxCell id="2OdIoPy5QrI03bMlLEsT-66" value="7" style="rounded=1;whiteSpace=wrap;html=1;fillColor=#FFFFFF;strokeColor=none;" parent="1" vertex="1">
          <mxGeometry x="353.50000000000006" y="2185" width="34.2" height="19" as="geometry" />
        </mxCell>
        <mxCell id="2OdIoPy5QrI03bMlLEsT-67" value="云韵" style="rounded=1;whiteSpace=wrap;html=1;fillColor=#FFFFFF;strokeColor=none;" parent="1" vertex="1">
          <mxGeometry x="317.30000000000007" y="2206" width="34.2" height="19" as="geometry" />
        </mxCell>
        <mxCell id="2OdIoPy5QrI03bMlLEsT-68" value="2" style="rounded=1;whiteSpace=wrap;html=1;fillColor=#FFFFFF;strokeColor=none;" parent="1" vertex="1">
          <mxGeometry x="353.50000000000006" y="2206" width="34.2" height="19" as="geometry" />
        </mxCell>
      </root>
    </mxGraphModel>
  </diagram>
</mxfile>
